<?xml version="1.0" standalone="no"?>
<!DOCTYPE svg PUBLIC "-//W3C//DTD SVG 20010904//EN"
 "http://www.w3.org/TR/2001/REC-SVG-20010904/DTD/svg10.dtd">
<svg version="1.0" xmlns="http://www.w3.org/2000/svg"
 width="323.000000pt" height="323.000000pt" viewBox="0 0 323.000000 323.000000"
 preserveAspectRatio="xMidYMid meet">
<metadata>
Created by potrace 1.14, written by Peter Selinger 2001-2017
</metadata>
<g transform="translate(0.000000,323.000000) scale(0.100000,-0.100000)"
fill="#000000" stroke="none">
<path d="M1588 3185 c-2 -2 -41 -5 -88 -9 -204 -14 -372 -59 -564 -150 -95
-45 -249 -140 -292 -179 -7 -7 -41 -37 -76 -67 -263 -227 -464 -604 -504 -945
-3 -27 -7 -61 -10 -75 -5 -31 -4 -254 1 -295 26 -202 62 -331 138 -500 53
-115 85 -169 168 -280 101 -135 223 -255 354 -346 48 -33 210 -129 218 -129 3
0 26 -10 53 -22 27 -12 51 -22 54 -23 3 0 10 -3 15 -6 29 -18 229 -71 315 -84
177 -27 406 -22 540 11 14 4 35 8 47 10 37 5 148 37 158 45 5 5 16 9 25 9 26
1 181 72 268 125 246 147 459 370 585 610 41 78 87 184 87 200 0 7 5 17 10 20
6 4 10 12 9 18 -1 7 3 24 9 38 15 37 50 210 61 299 8 76 7 290 -3 345 -2 17
-8 50 -11 74 -15 107 -85 329 -128 405 -6 12 -12 23 -12 26 -2 10 -48 96 -74
135 -230 358 -567 598 -974 695 -96 23 -121 27 -232 35 -44 4 -95 8 -112 9
-18 2 -34 2 -35 1z"/>
</g>
</svg>
